<?xml version="1.0" encoding="utf-8" ?>
<svg baseProfile="tiny" height="141px" version="1.2" viewBox="0,0,139,141" width="139px" xmlns="http://www.w3.org/2000/svg" xmlns:ev="http://www.w3.org/2001/xml-events" xmlns:xlink="http://www.w3.org/1999/xlink"><defs /><g id="butterfly-1"><g fill="rgb(0,0,0)" id="black_veins_body-0"><path d="M 124,65 L 123,65 L 122,66 L 122,68 L 123,69 L 122,70 L 122,71 L 121,72 L 121,73 L 118,76 L 118,77 L 117,78 L 116,78 L 114,80 L 115,80 L 116,79 L 117,79 L 118,78 L 118,77 L 120,75 L 121,75 L 122,74 L 122,73 L 123,72 L 123,71 L 125,69 L 125,66 Z" /><path d="M 42,36 L 40,37 L 40,43 L 42,43 L 47,64 L 45,65 L 38,58 L 42,61 L 52,80 L 48,83 L 46,90 L 31,111 L 50,91 L 56,91 L 57,87 L 66,88 L 80,98 L 73,92 L 84,92 L 63,86 L 61,80 L 69,70 L 68,68 L 64,68 L 55,76 L 52,75 L 45,58 Z" /><path d="M 69,13 L 68,12 L 65,12 L 64,13 L 63,13 L 63,14 L 62,15 L 61,15 L 59,17 L 59,18 L 48,29 L 47,29 L 44,32 L 43,32 L 43,33 L 44,33 L 47,30 L 49,30 L 50,31 L 51,31 L 51,28 L 52,27 L 52,26 L 53,25 L 55,25 L 55,23 L 57,21 L 57,20 L 59,18 L 59,17 L 60,16 L 61,17 L 61,16 L 62,15 L 64,15 L 66,13 L 68,13 L 70,15 L 69,14 Z" /></g><g fill="rgb(23,39,49)" id="black_veins_body-1"><path d="M 74,92 L 72,93 L 78,97 L 84,103 L 84,109 L 82,112 L 82,116 L 81,117 L 79,116 L 75,121 L 74,120 L 71,123 L 68,123 L 64,125 L 66,125 L 67,124 L 69,124 L 70,125 L 72,123 L 74,123 L 77,119 L 79,120 L 81,117 L 84,115 L 83,114 L 84,113 L 84,104 L 85,103 L 83,102 L 84,101 L 83,101 L 79,96 L 78,97 L 75,95 L 76,94 Z" /><path d="M 68,90 L 63,89 L 62,88 L 57,88 L 56,89 L 57,91 L 54,93 L 50,92 L 51,92 L 52,94 L 48,99 L 49,100 L 49,102 L 47,105 L 47,118 L 46,119 L 48,118 L 47,111 L 48,110 L 49,99 L 52,95 L 54,95 L 56,93 L 57,94 L 56,89 L 58,88 L 59,90 L 63,93 L 60,90 L 61,88 L 65,89 L 70,92 Z" /><path d="M 122,63 L 119,65 L 109,65 L 111,67 L 112,64 L 114,66 L 113,70 L 108,69 L 109,68 L 108,69 L 111,70 L 113,73 L 117,68 L 115,66 L 119,65 L 120,67 L 116,76 L 115,74 L 112,77 L 109,73 L 112,78 L 106,85 L 93,81 L 90,78 L 78,80 L 90,79 L 105,85 L 107,87 L 107,91 L 107,88 L 109,86 L 110,88 L 113,84 L 112,82 L 116,80 L 113,80 L 120,73 L 122,69 Z" /><path d="M 32,55 L 28,55 L 26,54 L 22,58 L 21,58 L 21,59 L 16,65 L 16,67 L 12,75 L 12,77 L 13,78 L 13,80 L 12,81 L 12,86 L 13,88 L 18,92 L 18,93 L 21,92 L 18,91 L 14,86 L 14,83 L 15,82 L 14,81 L 15,70 L 18,67 L 18,64 L 19,62 L 23,59 L 23,57 L 24,56 L 27,57 L 29,55 Z" /><path d="M 69,35 L 68,36 L 66,36 L 65,35 L 63,36 L 64,36 L 66,38 L 66,47 L 65,48 L 65,51 L 64,52 L 64,55 L 63,56 L 63,58 L 61,61 L 61,63 L 60,64 L 60,66 L 58,70 L 59,72 L 59,69 L 61,66 L 60,64 L 62,62 L 62,60 L 63,59 L 63,56 L 65,54 L 65,52 L 67,51 L 66,50 L 66,47 L 67,46 L 67,43 L 68,42 L 66,40 L 66,37 L 68,36 L 69,38 Z" /><path d="M 70,14 L 69,15 L 68,14 L 66,14 L 64,16 L 62,16 L 62,17 L 61,18 L 60,17 L 60,18 L 59,19 L 58,18 L 56,20 L 57,19 L 58,20 L 58,21 L 56,23 L 56,25 L 55,26 L 53,26 L 53,27 L 52,28 L 52,30 L 55,27 L 56,27 L 57,26 L 59,26 L 59,25 L 60,24 L 62,24 L 64,26 L 63,27 L 61,27 L 64,30 L 64,32 L 64,29 L 65,28 L 68,28 L 69,27 L 70,28 L 71,28 L 71,17 L 69,15 Z" /></g><g fill="rgb(25,70,117)" id="wing_color-3"><path d="M 50,99 L 50,102 L 51,99 L 53,103 L 53,110 L 54,102 L 57,98 L 67,114 L 67,111 L 59,97 L 61,93 L 64,94 L 70,101 L 76,105 L 70,99 L 71,98 L 80,100 L 83,105 L 83,103 L 79,99 L 68,96 L 63,91 L 65,90 L 73,94 L 62,89 L 62,93 L 57,89 L 58,94 Z" /><path d="M 119,67 L 118,67 L 113,74 L 110,75 L 108,73 L 109,72 L 106,72 L 104,70 L 108,68 L 107,69 L 104,69 L 103,68 L 104,70 L 102,72 L 99,72 L 97,70 L 97,74 L 96,75 L 88,77 L 91,78 L 90,80 L 82,80 L 79,79 L 82,80 L 90,80 L 92,79 L 93,80 L 92,81 L 94,80 L 92,79 L 93,77 L 97,76 L 104,72 L 107,72 L 110,75 L 111,74 L 114,78 L 113,75 L 115,73 L 117,73 Z" /><path d="M 35,57 L 40,64 L 40,68 L 38,70 L 34,64 L 37,69 L 36,70 L 34,70 L 30,67 L 33,70 L 37,70 L 40,72 L 46,79 L 38,81 L 41,80 L 43,81 L 42,84 L 40,85 L 41,88 L 36,92 L 32,92 L 36,92 L 42,88 L 44,88 L 45,86 L 43,82 L 44,81 L 47,82 L 45,78 L 46,76 L 50,79 L 49,77 L 48,78 L 46,76 L 45,77 L 41,73 L 43,72 L 45,74 L 41,69 L 40,66 L 41,63 Z" /><path d="M 62,25 L 60,27 L 57,27 L 60,27 L 63,30 L 63,35 L 61,39 L 62,42 L 61,43 L 60,42 L 60,44 L 58,47 L 56,43 L 55,45 L 56,44 L 57,45 L 56,48 L 57,46 L 59,48 L 59,54 L 59,49 L 61,46 L 62,39 L 64,37 L 65,38 L 62,36 L 65,34 L 66,35 L 68,35 L 69,34 L 69,31 L 68,29 L 66,29 L 64,33 L 63,32 L 63,30 L 60,27 Z" /></g><g fill="rgb(28,103,172)" id="wing_color-5"><path d="M 71,99 L 73,101 L 74,101 L 78,105 L 77,106 L 79,108 L 80,108 L 81,109 L 81,113 L 80,114 L 81,113 L 81,109 L 83,107 L 83,106 L 82,105 L 82,103 L 80,101 L 78,101 L 77,100 L 75,100 L 74,99 Z" /><path d="M 51,100 L 49,116 L 50,109 L 52,115 L 51,121 L 54,122 L 54,111 L 58,106 L 62,109 L 62,117 L 62,112 L 64,111 L 68,118 L 67,121 L 69,121 L 69,113 L 75,119 L 77,118 L 75,119 L 71,115 L 72,114 L 69,113 L 72,108 L 77,115 L 78,112 L 71,105 L 72,103 L 74,104 L 64,95 L 61,94 L 60,97 L 66,108 L 66,105 L 69,105 L 67,115 L 61,108 L 57,99 L 53,111 Z" /><path d="M 68,85 L 68,86 L 70,86 L 71,87 L 73,87 L 74,88 L 76,88 L 77,89 L 78,89 L 79,90 L 81,90 L 79,90 L 77,88 L 78,87 L 78,85 L 77,84 L 78,83 L 78,82 L 76,82 L 75,83 L 71,83 L 70,84 L 69,84 Z" /><path d="M 16,83 L 16,85 L 19,89 L 19,90 L 23,92 L 24,91 L 25,92 L 31,92 L 32,91 L 36,91 L 40,88 L 40,86 L 39,85 L 41,84 L 41,82 L 38,82 L 37,81 L 32,80 L 28,76 L 29,77 L 27,79 L 23,79 L 31,79 L 32,80 L 34,80 L 35,82 L 31,86 L 29,86 L 26,88 L 19,88 L 16,85 Z" /><path d="M 96,71 L 95,71 L 94,72 L 92,72 L 91,73 L 88,73 L 87,74 L 85,74 L 84,75 L 82,75 L 81,76 L 80,76 L 77,78 L 75,78 L 72,80 L 74,80 L 75,79 L 78,79 L 79,78 L 83,78 L 84,77 L 87,77 L 88,76 L 90,76 L 91,75 L 94,75 L 95,74 L 96,74 Z" /><path d="M 49,58 L 48,59 L 48,60 L 49,61 L 49,62 L 50,63 L 50,65 L 51,66 L 51,67 L 52,68 L 52,69 L 53,70 L 53,72 L 54,72 L 54,67 L 55,66 L 55,62 L 54,61 L 53,61 L 52,60 L 50,60 L 49,59 Z" /><path d="M 17,70 L 22,67 L 20,65 L 22,62 L 25,63 L 29,67 L 30,66 L 36,69 L 33,65 L 35,67 L 33,68 L 29,63 L 27,63 L 24,60 L 25,58 L 24,61 L 21,62 L 20,66 L 22,67 L 17,70 L 16,75 L 17,74 L 26,75 L 25,73 L 27,72 L 36,78 L 45,79 L 37,71 L 34,71 L 36,74 L 34,77 L 28,71 L 29,70 L 31,71 L 32,70 L 31,69 L 28,70 L 24,68 L 23,69 L 25,71 L 24,73 L 18,73 Z" /><path d="M 64,38 L 63,39 L 63,41 L 64,42 L 64,45 L 63,46 L 64,47 L 62,49 L 61,48 L 61,47 L 61,48 L 60,49 L 60,54 L 59,55 L 59,58 L 60,59 L 60,61 L 60,59 L 61,58 L 61,56 L 62,55 L 62,53 L 63,52 L 63,49 L 64,48 L 64,44 L 65,43 L 65,39 Z" /></g><g fill="rgb(14,134,205)" id="wing_color-6"><path d="M 58,107 L 57,108 L 56,108 L 56,110 L 55,111 L 55,123 L 56,124 L 57,124 L 60,121 L 60,120 L 61,119 L 62,120 L 62,124 L 64,124 L 66,122 L 66,121 L 67,120 L 67,118 L 66,117 L 66,115 L 65,114 L 65,113 L 64,112 L 63,112 L 63,117 L 62,118 L 61,117 L 61,109 L 60,108 L 60,107 Z" /><path d="M 72,104 L 72,105 L 76,109 L 76,110 L 77,111 L 78,111 L 79,112 L 78,113 L 79,114 L 80,113 L 80,109 L 79,109 L 75,105 L 74,105 L 73,104 Z" /><path d="M 78,84 L 79,85 L 79,87 L 78,88 L 79,89 L 81,89 L 82,90 L 85,90 L 86,91 L 92,91 L 93,92 L 102,92 L 105,90 L 105,87 L 104,86 L 102,86 L 101,85 L 99,85 L 98,84 L 96,84 L 95,83 L 93,83 L 92,82 L 90,82 L 89,81 L 84,81 L 83,82 L 79,82 L 79,83 Z" /><path d="M 16,76 L 16,78 L 17,79 L 17,85 L 19,87 L 26,87 L 29,85 L 31,85 L 34,82 L 34,81 L 32,81 L 31,80 L 23,80 L 22,79 L 23,78 L 27,78 L 28,77 L 25,75 L 17,75 Z" /><path d="M 96,79 L 96,80 L 97,80 L 98,81 L 99,81 L 100,82 L 102,82 L 103,83 L 106,83 L 107,82 L 107,81 L 109,79 L 109,75 L 108,74 L 103,74 L 101,76 L 100,76 L 99,77 L 98,77 Z" /><path d="M 21,64 L 21,65 L 23,67 L 24,67 L 25,68 L 27,68 L 28,69 L 30,69 L 30,68 L 29,68 L 25,64 L 24,64 L 23,63 L 22,63 Z" /><path d="M 32,57 L 32,59 L 33,60 L 33,61 L 38,66 L 38,67 L 39,66 L 38,65 L 38,63 L 37,62 L 37,61 L 36,61 L 34,59 L 34,58 L 33,57 Z" /><path d="M 47,33 L 46,34 L 45,34 L 45,35 L 44,36 L 44,42 L 45,43 L 45,48 L 46,49 L 46,51 L 48,54 L 48,58 L 49,57 L 50,58 L 50,59 L 52,59 L 55,61 L 55,57 L 56,56 L 56,51 L 55,50 L 55,47 L 52,42 L 52,40 L 51,39 L 51,37 L 50,36 L 50,35 L 48,33 Z" /><path d="M 58,28 L 57,29 L 56,29 L 54,31 L 54,36 L 55,37 L 55,39 L 56,40 L 56,41 L 57,42 L 57,43 L 58,43 L 58,42 L 59,41 L 59,40 L 60,39 L 60,37 L 61,36 L 61,34 L 62,33 L 62,32 L 61,31 L 61,30 L 60,29 L 59,29 Z" /></g><g fill="rgb(211,216,210)" id="white_spots-7"><path d="M 77,93 L 79,95 L 80,95 L 86,101 L 86,102 L 87,103 L 87,113 L 86,114 L 86,115 L 80,121 L 79,121 L 75,124 L 77,124 L 78,123 L 79,123 L 86,116 L 86,115 L 88,113 L 88,103 L 86,101 L 86,100 L 82,96 L 82,95 L 80,95 Z" /></g></g></svg>